HIERARCHY
ROOT Freezer
{
	OFFSET 0.000000 0.000000 0.000000
	CHANNELS 6 Xposition Yposition Zposition Xrotation Yrotation Zrotation
	JOINT Freezer_Door
	{
		OFFSET 0.000097 -0.000071 0.062500
		CHANNELS 3 Xrotation Yrotation Zrotation
		End Site
		{
			OFFSET 0.000017 0.000318 0.026176
		}
	}
}
MOTION
Frames: 41
Frame Time: 0.041667
0 0 0 0 0 0.000001 0 0 0
0 0 0 0 0 0.000001 0 0 0.606548
0 0 0 0 0 0.000001 0 0 2.351017
0 0 0 0 0 0.000001 0 0 5.133624
0 0 0 0 0 0.000001 0 0 8.862673
0 0 0 0 0 0.000001 0 0 13.443476
0 0 0 0 0 0.000001 0 0 18.768501
0 0 0 0 0 0.000001 0 0 24.709864
0 0 0 0 0 0.000001 0 0.000001 31.115664
0 0 0 0 0 0.000001 -0.000001 0.000001 37.811159
0 0 0 0 0 0.000001 -0.000002 0.000001 44.605233
0 0 0 0 0 0.000001 -0.000002 0.000001 51.300745
0 0 0 0 0 0.000001 -0.000004 0.000002 57.706527
0 0 0 0 0 0.000001 -0.000006 0.000003 63.647903
0 0 0 0 0 0.000001 -0.000009 0.000004 68.972896
0 0 0 0 0 0.000001 -0.000012 0.000006 73.553699
0 0 0 0 0 0.000001 -0.000018 0.000008 77.282764
0 0 0 0 0 0.000001 -0.000025 0.00001 80.065369
0 0 0 0 0 0.000001 -0.000031 0.000013 81.809848
0 0 0 0 0 0.000001 -0.000034 0.000014 82.416389
0 0 0 0 0 0.000001 -0.000032 0.000012 81.868082
0 0 0 0 0 0.000001 -0.000026 0.00001 80.288068
0 0 0 0 0 0.000001 -0.000019 0.000008 77.762715
0 0 0 0 0 0.000001 -0.000014 0.000006 74.370815
0 0 0 0 0 0.000001 -0.000009 0.000005 70.192379
0 0 0 0 0 0.000001 -0.000007 0.000003 65.316368
0 0 0 0 0 0.000001 -0.000004 0.000003 59.847128
0 0 0 0 0 0.000001 -0.000003 0.000002 53.908057
0 0 0 0 0 0.000001 -0.000002 0.000001 47.642093
0 0 0 0 0 0.000001 -0.000001 0.000001 41.208184
0 0 0 0 0 0.000001 -0.000001 0.000001 34.774279
0 0 0 0 0 0.000001 0 0.000001 28.508323
0 0 0 0 0 0.000001 0 0 22.569257
0 0 0 0 0 0.000001 0 0 17.100009
0 0 0 0 0 0.000001 0 0 12.223999
0 0 0 0 0 0.000001 0 0 8.045565
0 0 0 0 0 0.000001 0 0 4.653677
0 0 0 0 0 0.000001 0 0 2.128311
0 0 0 0 0 0.000001 0 0 0.548309
0 0 0 0 0 0.000001 0 0 0
0 0 0 0 0 0.000001 0 0 0
